<svg fill="#000000" xmlns="http://www.w3.org/2000/svg" viewBox="0 0 50 50" width="150px" height="150px"><path d="M 32 10 C 21 10 14 14 14 14 L 16.867188 15.910156 C 7.417969 19.140625 1.378906 31.007813 1.105469 31.550781 L 0.183594 33.394531 L 2.203125 32.980469 C 2.238281 32.972656 3.894531 32.65625 6.640625 32.722656 L 7 32 C 9 28 14 25 14 25 C 14 25 11 29 10 32 L 9.539063 32.925781 C 12.652344 33.28125 16.570313 34.167969 20.890625 36.109375 L 21 36 C 22.546875 33.265625 26 30 26 30 C 26 30 23.828125 33.847656 23 37 L 23 37.109375 C 28.617188 39.839844 34.5625 40.9375 34.824219 40.984375 L 36.363281 41.261719 L 34.976563 35.976563 C 36.5 35.921875 37.722656 35.691406 38.707031 34.707031 C 39.785156 33.628906 39.476563 30.574219 39.105469 28.46875 C 40.53125 27.472656 44 24.664063 44 21 L 44 20.449219 C 46.0625 20.527344 48.125 20.847656 50 21.621094 C 50 21.621094 47.75 20.125 44 19.988281 L 44 19.863281 C 44.074219 19.644531 44.171875 19.324219 44.214844 19.171875 C 45.828125 19.109375 47.867188 19.289063 49.480469 19.980469 C 49.480469 19.980469 47.390625 18.765625 44.296875 18.761719 C 44.324219 18.660156 44.40625 18.214844 44.433594 17.953125 C 45.855469 18.011719 47.246094 18.140625 48.511719 18.640625 C 47.382813 18.03125 45.417969 17.65625 44 17.449219 L 44 16.535156 L 48 14 C 48 14 41 10 32 10 Z M 29.378906 14.085938 C 29.898438 14.074219 30.414063 14.167969 30.894531 14.402344 L 31.78125 15.015625 C 32.355469 15.328125 33.027344 15.496094 33.675781 15.582031 C 33.335938 15.789063 32.347656 15.582031 32.347656 15.582031 C 31.8125 15.753906 31.253906 15.835938 30.6875 15.601563 C 30.234375 15.335938 29.746094 15.136719 29.21875 15.015625 C 29.8125 14.929688 30.367188 14.804688 30.960938 14.855469 C 29.753906 14.191406 28.199219 14.515625 26.9375 14.882813 C 27.648438 14.421875 28.515625 14.105469 29.378906 14.085938 Z M 39.242188 14.59375 C 39.914063 14.570313 40.570313 14.898438 41.144531 15.308594 C 40.285156 14.988281 39.21875 14.65625 38.378906 15.148438 C 38.777344 15.167969 39.277344 15.203125 39.703125 15.289063 C 38.898438 15.421875 38.152344 16.167969 37.296875 15.695313 C 36.976563 15.761719 36.582031 15.761719 36.328125 15.695313 C 37.109375 15.582031 37.898438 15.261719 38.570313 14.742188 C 38.792969 14.648438 39.019531 14.601563 39.242188 14.59375 Z M 36.335938 16.542969 C 37.183594 16.527344 38.066406 16.757813 38.75 17.300781 C 38.070313 17.386719 37.441406 17.765625 37.050781 18.347656 C 36.828125 18.558594 36.976563 19.066406 36.519531 19.042969 C 36.121094 19.082031 36.164063 18.570313 35.910156 18.371094 C 35.496094 17.800781 34.816406 17.433594 34.109375 17.265625 C 34.667969 16.820313 35.488281 16.554688 36.335938 16.542969 Z M 31.453125 17.363281 L 30.363281 18.453125 L 30.363281 20.636719 C 30.363281 20.636719 24.910156 20.636719 17.273438 23.90625 C 22.726563 20.636719 30.363281 19.546875 30.363281 19.546875 C 30.363281 19.546875 24.910156 18.453125 17.273438 21.726563 C 22.726563 18.453125 30.363281 18.453125 30.363281 18.453125 C 30.363281 18.453125 24.910156 17.363281 17.273438 19.546875 C 22.726563 17.363281 31.453125 17.363281 31.453125 17.363281 Z M 35.878906 20.738281 C 36.929688 20.71875 37.992188 20.863281 39.019531 21.203125 C 39.199219 23.417969 38.1875 25.207031 38.1875 25.207031 C 38.066406 23.894531 37.976563 22.714844 37.683594 21.363281 C 37.554688 21.742188 37.511719 22.3125 37.410156 22.320313 C 37.15625 22.367188 37.027344 21.902344 36.929688 21.628906 C 36.453125 21.539063 35.53125 21.535156 35.0625 21.65625 C 34.933594 21.917969 34.808594 22.316406 34.539063 22.28125 C 34.417969 22.269531 34.382813 21.714844 34.222656 21.382813 C 33.984375 21.847656 33.742188 24.492188 33.628906 25.234375 C 32.96875 23.875 32.882813 22.800781 32.816406 21.269531 C 33.792969 20.949219 34.832031 20.761719 35.878906 20.738281 Z M 31.839844 29.363281 C 31.902344 31.425781 32.523438 31.875 32.523438 31.875 C 32.539063 31.773438 32.550781 31.71875 32.550781 31.636719 C 33.332031 31.804688 34.035156 31.804688 34.8125 31.636719 L 34.839844 31.863281 C 35.355469 31.398438 35.53125 30.253906 35.550781 29.363281 C 36.066406 30.109375 35.996094 31.480469 35.859375 32.066406 C 35.0625 32.855469 32.074219 32.851563 31.484375 31.863281 C 31.410156 31.011719 31.453125 30.144531 31.839844 29.363281 Z"/></svg>