<?xml version="1.0" encoding="UTF-8" standalone="no"?>
<svg
   xmlns:dc="http://purl.org/dc/elements/1.1/"
   xmlns:cc="http://creativecommons.org/ns#"
   xmlns:rdf="http://www.w3.org/1999/02/22-rdf-syntax-ns#"
   xmlns:svg="http://www.w3.org/2000/svg"
   xmlns="http://www.w3.org/2000/svg"
   version="1.1"
   id="svg833"
   xml:space="preserve"
   width="150"
   height="150"
   viewBox="0 0 150 150"><metadata
     id="metadata839"><rdf:RDF><cc:Work
         rdf:about=""><dc:format>image/svg+xml</dc:format><dc:type
           rdf:resource="http://purl.org/dc/dcmitype/StillImage" /><dc:title></dc:title></cc:Work></rdf:RDF></metadata><defs
     id="defs837"><clipPath
       clipPathUnits="userSpaceOnUse"
       id="clipPath849"><path
         d="M 0,900 H 1280 V 0 H 0 Z"
         id="path847" /></clipPath></defs><g
     id="g841"
     transform="matrix(0.27777778,0,0,-0.27777778,-102.77778,200)"><g
       id="g843"><g
         id="g845"
         clip-path="url(#clipPath849)"><g
           id="g851"
           transform="translate(799.125,180)"><path
             d="m 0,0 h -318.25 c -61.234,0 -110.875,49.641 -110.875,110.875 v 318.25 c 0,61.234 49.641,110.875 110.875,110.875 H 0 c 61.234,0 110.875,-49.641 110.875,-110.875 V 110.875 C 110.875,49.641 61.234,0 0,0"
             style="fill:#080810;fill-opacity:1;fill-rule:nonzero;stroke:none"
             id="path853" /></g><g
           id="g855"
           transform="translate(799.125,180)"><path
             d="m 0,0 h -318.25 c -61.234,0 -110.875,49.641 -110.875,110.875 v 318.25 c 0,61.234 49.641,110.875 110.875,110.875 H 0 c 61.234,0 110.875,-49.641 110.875,-110.875 V 110.875 C 110.875,49.641 61.234,0 0,0"
             style="fill:#080810;fill-opacity:1;fill-rule:nonzero;stroke:none"
             id="path857" /></g><g
           id="g859"
           transform="translate(720.5713,628.2085)"><path
             d="m 0,0 c 0,0 50.357,-10.072 50.357,-55.393 0,0 45.322,0 45.322,-50.357 0,0 -45.322,30.214 -90.643,-35.25 0,0 -5.036,5.036 -5.036,15.107 0,0 -15.107,-15.107 -15.107,-50.357 -30.214,40.286 5.036,70.5 25.178,105.75 C 30.215,-35.25 0,0 0,0"
             style="fill:#b0b0b0;fill-opacity:1;fill-rule:nonzero;stroke:none"
             id="path861" /></g><g
           id="g863"
           transform="translate(740.7139,482.1724)"><path
             d="M 0,0 C 25.179,30.214 55.394,30.214 55.394,30.214 30.215,5.036 35.25,-15.107 20.144,-25.178 c -22.565,-15.043 -40.287,5.035 -40.287,5.035 5.037,10.072 15.108,15.107 15.108,15.107 2.326,-9.304 8.95,-8.938 15.405,-5.85 C 18.796,-6.855 13.152,5.952 4.537,2.343 1.785,1.19 0,0 0,0"
             style="fill:#b0b0b0;fill-opacity:1;fill-rule:nonzero;stroke:none"
             id="path865" /></g><g
           id="g867"
           transform="translate(614.8213,331.1016)"><path
             d="m 0,0 c 9.699,-4.85 24.025,-5.029 25.077,-5.035 1.051,0.006 15.378,0.185 25.076,5.035 20.143,10.071 30.214,0 30.214,0 0,0 5.036,5.035 0,25.178 -5.035,20.143 5.036,35.25 5.036,35.25 0,0 0,-20.143 10.072,-40.285 10.071,-20.143 5.036,-40.287 -10.072,-45.322 0,0 -15.107,15.107 -30.214,5.035 -15,-9.999 -22.610047,-26.203721 -30.548047,-26.203721 -7.938,0 -14.676953,16.204721 -29.676953,26.203721 -15.107,10.072 -30.214,-5.035 -30.214,-5.035 -15.107,5.035 -20.143,25.179 -10.071,45.322 10.071,20.142 10.071,40.285 10.071,40.285 0,0 10.071,-15.107 5.036,-35.25 -5.036,-20.143 0,-25.178 0,-25.178 0,0 10.071,10.071 30.214,0"
             style="fill:#b0b0b0;fill-opacity:1;fill-rule:nonzero;stroke:none"
             id="path869" /></g><g
           id="g871"
           transform="translate(700.2246,316.9229)"><path
             d="m 0,0 c 0,0 -15.107,15.106 -30.215,5.035 -14.999,-9.999 -22.174,-10.07 -30.112,-10.07 -7.938,0 -15.112,0.071 -30.112,10.07 C -105.546,15.106 -120.653,0 -120.653,0 c -8.228,2.742 -13.459,9.971 -14.899,19.234 -2.035,-14.305 3.625,-26.476 14.899,-30.234 0,0 15.107,15.106 30.214,5.035 15,-9.999 22.174,-10.07 30.112,-10.07 7.938,0 15.113,0.071 30.112,10.07 C -15.107,4.106 0,-11 0,-11 11.273,-7.242 16.934,4.929 14.898,19.234 13.458,9.971 8.228,2.742 0,0"
             style="fill:#d9d9d9;fill-opacity:1;fill-rule:nonzero;stroke:none"
             id="path873" /></g><g
           id="g875"
           transform="translate(559.4287,628.2085)"><path
             d="M 0,0 C 0,0 -30.214,-35.25 -10.071,-70.5 10.071,-105.75 45.321,-135.964 15.107,-176.25 15.107,-141 0,-125.893 0,-125.893 0,-135.964 -5.036,-141 -5.036,-141 c -45.321,65.464 -90.643,35.25 -90.643,35.25 0,50.357 45.322,50.357 45.322,50.357 C -50.357,-10.072 0,0 0,0"
             style="fill:#b0b0b0;fill-opacity:1;fill-rule:nonzero;stroke:none"
             id="path877" /></g><g
           id="g879"
           transform="translate(544.3213,477.1367)"><path
             d="m 0,0 c 0,0 10.071,-5.036 15.107,-15.107 0,0 -17.722,-20.079 -40.286,-5.036 -15.107,10.072 -10.071,30.215 -35.25,55.393 0,0 30.215,0 55.393,-30.214 0,0 -1.785,1.19 -4.537,2.343 -8.615,3.609 -14.259,-9.199 -5.832,-13.23 C -8.95,-8.938 -2.326,-9.304 0,0"
             style="fill:#b0b0b0;fill-opacity:1;fill-rule:nonzero;stroke:none"
             id="path881" /></g><g
           id="g883"
           transform="translate(463.75,708.7798)"><path
             d="M 0,0 C -3.52,2.816 -7.064,5.377 -10.613,7.722 -28.95,2.999 -45.446,-6.302 -58.821,-18.883 c 1.123,-0.383 2.261,-0.793 3.428,-1.26 0,0 -2.463,0 -5.849,-1.079 -7.298,-7.292 -13.578,-15.599 -18.624,-24.686 -0.448,-2.841 -0.705,-5.982 -0.705,-9.485 0,0 15.107,10.072 35.25,5.036 0,0 -15.108,-25.179 5.035,-60.429 0,0 0,20.143 30.215,40.286 C 20.143,-50.357 33.366,-26.693 0,0"
             style="fill:#b0b0b0;fill-opacity:1;fill-rule:nonzero;stroke:none"
             id="path885" /></g><g
           id="g887"
           transform="translate(483.8926,295.8516)"><path
             d="m 0,0 c -15.107,45.321 -70.5,50.356 -85.607,105.75 -15.107,55.393 20.143,110.785 20.143,110.785 0,0 -20.143,-50.357 20.143,-105.75 0,0 -15.107,35.25 10.071,60.429 C -35.25,141 -25.178,120.856 5.036,85.606 35.25,50.356 0,0 0,0"
             style="fill:#b0b0b0;fill-opacity:1;fill-rule:nonzero;stroke:none"
             id="path889" /></g><g
           id="g891"
           transform="translate(408.4033,435.3027)"><path
             d="m 0,0 c -4.621,16.944 -5.025,33.885 -3.18,49.562 -8.08,-21.291 -15.389,-52.275 -6.938,-83.263 15.107,-55.394 70.5,-60.429 85.607,-105.75 0,0 0.038,0.054 0.109,0.156 C 84.592,-63.303 16.899,-61.966 0,0"
             style="fill:#d9d9d9;fill-opacity:1;fill-rule:nonzero;stroke:none"
             id="path893" /></g><g
           id="g895"
           transform="translate(740.7148,356.2793)"><path
             d="m 0,0 c -30.215,35.25 -35.25,55.394 -35.25,55.394 0,0 0,-25.179 15.106,-60.429 15.108,-35.25 5.037,-60.429 -25.178,-65.465 0,0 -5.035,10.072 -15.108,5.036 -10.07,-5.036 -15.106,-20.142 -30.214,-30.214 -15.106,-10.072 5.037,-45.322 50.358,-40.286 0,0 -30.214,-20.142 -60.429,5.036 -30.214,-25.178 -60.429,-5.036 -60.429,-5.036 45.322,-5.036 65.464,30.214 50.358,40.286 -15.108,10.072 -20.143,25.178 -30.214,30.214 -10.072,5.036 -15.108,-5.036 -15.108,-5.036 -30.214,5.036 -40.286,30.215 -25.178,65.465 15.107,35.25 15.107,60.429 15.107,60.429 0,0 -5.036,-20.144 -35.25,-55.394 -30.215,-35.25 -50.357,-100.714 35.25,-95.678 0,0 -15.107,-15.107 -55.393,-5.036 0,0 10.072,-30.214 55.393,-20.142 0,0 -15.107,-10.072 -30.215,-10.072 0,0 5.037,-5.036 20.144,-5.036 0,0 0.006,-22.735 17.44,-40.315 h 116.191 c 17.433,17.58 17.44,40.315 17.44,40.315 15.107,0 20.143,5.036 20.143,5.036 -15.108,0 -30.214,10.072 -30.214,10.072 45.321,-10.072 55.393,20.142 55.393,20.142 -40.287,-10.071 -55.393,5.036 -55.393,5.036 C 50.356,-100.714 30.214,-35.25 0,0"
             style="fill:#b0b0b0;fill-opacity:1;fill-rule:nonzero;stroke:none"
             id="path897" /></g><g
           id="g899"
           transform="translate(881.7139,401.6016)"><path
             d="m 0,0 c -15.106,-55.394 -70.5,-60.429 -85.606,-105.75 0,0 -35.25,50.356 -5.037,85.606 30.215,35.25 40.287,55.394 40.287,85.608 C -25.178,40.285 -40.285,5.035 -40.285,5.035 0,60.428 -20.143,110.785 -20.143,110.785 -20.143,110.785 15.107,55.393 0,0"
             style="fill:#b0b0b0;fill-opacity:1;fill-rule:nonzero;stroke:none"
             id="path901" /></g><g
           id="g903"
           transform="translate(877.4922,687.5576)"><path
             d="m 0,0 c -3.386,1.079 -5.85,1.079 -5.85,1.079 1.167,0.467 2.306,0.877 3.429,1.26 -13.375,12.581 -29.871,21.882 -48.208,26.605 -3.549,-2.344 -7.094,-4.906 -10.613,-7.722 -33.366,-26.693 -20.143,-50.357 10.071,-70.5 30.215,-20.143 30.215,-40.285 30.215,-40.285 20.143,35.25 5.035,60.428 5.035,60.428 20.143,5.036 35.25,-5.036 35.25,-5.036 0,3.503 -0.257,6.644 -0.705,9.485 C 13.578,-15.599 7.298,-7.292 0,0"
             style="fill:#b0b0b0;fill-opacity:1;fill-rule:nonzero;stroke:none"
             id="path905" /></g><g
           id="g907"
           transform="translate(881.7139,401.6016)"><path
             d="M 0,0 C 8.284,30.374 1.427,60.746 -6.458,81.987 -4.782,66.667 -5.279,50.188 -9.775,33.701 -26.646,-28.157 -94.125,-29.603 -85.414,-105.202 -70.042,-60.393 -15.045,-55.167 0,0"
             style="fill:#d9d9d9;fill-opacity:1;fill-rule:nonzero;stroke:none"
             id="path909" /></g><g
           id="g911"
           transform="translate(522.1611,482.8999)"><path
             d="M 0,0 C -0.607,-1.666 0.619,-3.643 2.739,-4.416 4.859,-5.189 7.07,-4.466 7.678,-2.8 8.285,-1.134 7.059,0.843 4.939,1.616 2.819,2.39 0.607,1.666 0,0"
             style="fill:#ffffff;fill-opacity:1;fill-rule:nonzero;stroke:none"
             id="path913" /></g><g
           id="g915"
           transform="translate(748,481.5)"><path
             d="M 0,0 C 0,-1.933 2.015,-3.5 4.5,-3.5 6.985,-3.5 9,-1.933 9,0 9,1.933 6.985,3.5 4.5,3.5 2.015,3.5 0,1.933 0,0"
             style="fill:#ffffff;fill-opacity:1;fill-rule:nonzero;stroke:none"
             id="path917" /></g></g></g></g></svg>
